<svg xmlns="http://www.w3.org/2000/svg" xmlns:xlink="http://www.w3.org/1999/xlink" width="600" zoomAndPan="magnify" viewBox="0 0 450 149.999998" height="200" preserveAspectRatio="xMidYMid meet" version="1.2"><defs/><g id="6abdd553d9"><g style="fill:#ffde59;fill-opacity:1;"><g transform="translate(33.426318, 127.350335)"><path style="stroke:none" d="M 33.1875 1.453125 C 23.851562 1.453125 16.910156 -1.019531 12.359375 -5.96875 C 7.816406 -10.914062 5.382812 -18.78125 5.0625 -29.5625 L 23.53125 -32.34375 C 23.613281 -26.144531 24.359375 -21.695312 25.765625 -19 C 27.171875 -16.3125 29.285156 -14.96875 32.109375 -14.96875 C 35.722656 -14.96875 37.53125 -17.335938 37.53125 -22.078125 C 37.53125 -25.867188 36.664062 -29.128906 34.9375 -31.859375 C 33.207031 -34.597656 30.492188 -37.535156 26.796875 -40.671875 L 18.34375 -48.03125 C 14.15625 -51.570312 10.914062 -55.332031 8.625 -59.3125 C 6.332031 -63.300781 5.1875 -68.03125 5.1875 -73.5 C 5.1875 -81.707031 7.617188 -88.019531 12.484375 -92.4375 C 17.359375 -96.863281 24.054688 -99.078125 32.578125 -99.078125 C 41.835938 -99.078125 48.132812 -96.378906 51.46875 -90.984375 C 54.8125 -85.597656 56.601562 -79.046875 56.84375 -71.328125 L 38.265625 -69.03125 C 38.097656 -74.101562 37.628906 -77.742188 36.859375 -79.953125 C 36.097656 -82.171875 34.429688 -83.28125 31.859375 -83.28125 C 30.003906 -83.28125 28.570312 -82.492188 27.5625 -80.921875 C 26.5625 -79.347656 26.0625 -77.597656 26.0625 -75.671875 C 26.0625 -72.367188 26.804688 -69.59375 28.296875 -67.34375 C 29.785156 -65.09375 32.179688 -62.519531 35.484375 -59.625 L 43.5625 -52.5 C 48.394531 -48.394531 52.140625 -44.046875 54.796875 -39.453125 C 57.453125 -34.867188 58.78125 -29.441406 58.78125 -23.171875 C 58.78125 -18.585938 57.710938 -14.421875 55.578125 -10.671875 C 53.441406 -6.929688 50.441406 -3.972656 46.578125 -1.796875 C 42.722656 0.367188 38.257812 1.453125 33.1875 1.453125 Z M 33.1875 1.453125 "/></g></g><g style="fill:#ffde59;fill-opacity:1;"><g transform="translate(95.456742, 127.350335)"><path style="stroke:none" d=""/></g></g><g style="fill:#000000;fill-opacity:1;"><g transform="translate(95.456742, 127.350335)"><path style="stroke:none" d="M 7.609375 -97.75 L 29.203125 -97.75 L 29.203125 -58.171875 L 44.296875 -58.171875 L 44.296875 -97.75 L 66.015625 -97.75 L 66.015625 0 L 44.296875 0 L 44.296875 -42.71875 L 29.203125 -42.71875 L 29.203125 0 L 7.609375 0 Z M 7.609375 -97.75 "/></g></g><g style="fill:#000000;fill-opacity:1;"><g transform="translate(169.065162, 127.350335)"><path style="stroke:none" d="M 35.234375 1.453125 C 24.703125 1.453125 17.179688 -1.257812 12.671875 -6.6875 C 8.160156 -12.125 5.90625 -20.15625 5.90625 -30.78125 L 5.90625 -67.109375 C 5.90625 -77.722656 8.160156 -85.703125 12.671875 -91.046875 C 17.179688 -96.398438 24.703125 -99.078125 35.234375 -99.078125 C 45.859375 -99.078125 53.441406 -96.378906 57.984375 -90.984375 C 62.535156 -85.597656 64.8125 -77.640625 64.8125 -67.109375 L 64.8125 -30.78125 C 64.8125 -20.15625 62.535156 -12.125 57.984375 -6.6875 C 53.441406 -1.257812 45.859375 1.453125 35.234375 1.453125 Z M 35.234375 -13.875 C 38.296875 -13.875 40.304688 -14.898438 41.265625 -16.953125 C 42.234375 -19.003906 42.71875 -21.800781 42.71875 -25.34375 L 42.71875 -72.40625 C 42.71875 -76.03125 42.234375 -78.847656 41.265625 -80.859375 C 40.304688 -82.867188 38.296875 -83.875 35.234375 -83.875 C 32.335938 -83.875 30.40625 -82.847656 29.4375 -80.796875 C 28.476562 -78.742188 28 -75.945312 28 -72.40625 L 28 -25.34375 C 28 -21.800781 28.441406 -19.003906 29.328125 -16.953125 C 30.210938 -14.898438 32.179688 -13.875 35.234375 -13.875 Z M 35.234375 -13.875 "/></g></g><g style="fill:#000000;fill-opacity:1;"><g transform="translate(239.777517, 127.350335)"><path style="stroke:none" d="M 7.234375 -97.75 L 40.0625 -97.75 C 48.675781 -97.75 55.113281 -95.316406 59.375 -90.453125 C 63.644531 -85.585938 65.78125 -78.566406 65.78125 -69.390625 C 65.78125 -58.929688 63.304688 -51.671875 58.359375 -47.609375 C 53.410156 -43.546875 46.46875 -41.515625 37.53125 -41.515625 L 28.84375 -41.515625 L 28.84375 0 L 7.234375 0 Z M 36.078125 -56.609375 C 39.867188 -56.609375 42.382812 -57.613281 43.625 -59.625 C 44.875 -61.632812 45.5 -65.007812 45.5 -69.75 C 45.5 -74.101562 44.894531 -77.320312 43.6875 -79.40625 C 42.476562 -81.5 39.90625 -82.546875 35.96875 -82.546875 L 28.84375 -82.546875 L 28.84375 -56.609375 Z M 36.078125 -56.609375 "/></g></g><g style="fill:#000000;fill-opacity:1;"><g transform="translate(308.679828, 127.350335)"><path style="stroke:none" d="M 7.234375 -97.75 L 51.171875 -97.75 L 51.171875 -83.03125 L 28.84375 -83.03125 L 28.84375 -58.78125 L 45.859375 -58.78125 L 45.859375 -43.8125 L 28.84375 -43.8125 L 28.84375 -14.609375 L 51.40625 -14.609375 L 51.40625 0 L 7.234375 0 Z M 7.234375 -97.75 "/></g></g><g style="fill:#000000;fill-opacity:1;"><g transform="translate(362.619134, 127.350335)"><path style="stroke:none" d="M 7.234375 -97.75 L 51.171875 -97.75 L 51.171875 -83.03125 L 28.84375 -83.03125 L 28.84375 -58.78125 L 45.859375 -58.78125 L 45.859375 -43.8125 L 28.84375 -43.8125 L 28.84375 -14.609375 L 51.40625 -14.609375 L 51.40625 0 L 7.234375 0 Z M 7.234375 -97.75 "/></g></g><g style="fill:#000000;fill-opacity:1;"><g transform="translate(416.569719, 127.350335)"><path style="stroke:none" d=""/></g></g></g></svg>